<?xml version="1.0" encoding="utf-8"?>
<!-- Generator: Adobe Illustrator 16.0.0, SVG Export Plug-In . SVG Version: 6.00 Build 0)  -->
<!DOCTYPE svg PUBLIC "-//W3C//DTD SVG 1.1//EN" "http://www.w3.org/Graphics/SVG/1.1/DTD/svg11.dtd">
<svg version="1.1" id="Layer_1" xmlns="http://www.w3.org/2000/svg" xmlns:xlink="http://www.w3.org/1999/xlink" x="0px" y="0px"
	 width="30px" height="27.333px" viewBox="0 0 30 27.333" enable-background="new 0 0 30 27.333" xml:space="preserve">
<g>
	<path d="M27.346,27.333c-0.64-0.467-1.131-0.819-1.615-1.183c-1.549-1.159-3.076-2.353-4.657-3.468
		c-0.423-0.299-1.007-0.508-1.519-0.514c-3.367-0.045-6.736-0.01-10.104-0.037c-0.58-0.004-1.158-0.178-1.738-0.271
		c-0.006-0.09-0.013-0.179-0.019-0.27c0.841-0.639,1.671-1.295,2.533-1.904c0.182-0.128,0.479-0.125,0.725-0.126
		c3.255-0.009,6.511-0.019,9.766,0.013c0.383,0.004,0.811,0.189,1.135,0.411c0.938,0.646,1.836,1.351,2.9,2.146
		c0-0.944,0-1.709,0-2.57c0.893,0,1.691,0,2.534,0c0-3.955,0-7.809,0-11.75c-1.169,0-2.286-0.028-3.397,0.033
		c-0.156,0.009-0.406,0.455-0.412,0.702c-0.035,1.823-0.011,3.648-0.021,5.473c-0.013,1.921-0.983,2.896-2.908,2.899
		c-3.366,0.01-6.735-0.02-10.103,0.024c-0.513,0.007-1.101,0.211-1.52,0.511c-1.895,1.354-3.74,2.773-5.606,4.168
		c-0.191,0.143-0.398,0.264-0.736,0.487c0-1.545-0.017-2.937,0.009-4.325c0.01-0.533-0.047-0.838-0.698-0.968
		c-1.118-0.224-1.87-1.226-1.876-2.392c-0.021-3.958-0.025-7.915-0.003-11.872C0.022,1.119,1.09,0.022,2.516,0.016
		c6.146-0.022,12.292-0.021,18.438,0.002c1.387,0.006,2.423,1.079,2.491,2.464c0.029,0.616,0.048,1.237,0.003,1.852
		c-0.05,0.671,0.132,0.961,0.877,0.907c0.977-0.069,1.964-0.027,2.944-0.011c1.594,0.025,2.686,1.016,2.701,2.609
		c0.041,3.9,0.031,7.802,0,11.703c-0.012,1.33-0.771,2.244-2.046,2.533c-0.464,0.104-0.589,0.291-0.582,0.727
		c0.019,1.179,0.005,2.357,0.003,3.535C27.346,26.607,27.346,26.875,27.346,27.333z M20.732,14.346
		c0.067-0.188,0.104-0.24,0.104-0.292c0.01-3.616,0.006-7.231,0.029-10.848c0.004-0.585-0.315-0.609-0.75-0.609
		C14.535,2.604,8.956,2.611,3.376,2.59C2.744,2.588,2.568,2.785,2.573,3.407c0.029,3.393,0.014,6.785,0.02,10.178
		c0,0.238,0.041,0.477,0.07,0.789c0.884,0,1.685,0,2.592,0c0,0.838,0,1.598,0,2.526c1.068-0.802,1.964-1.515,2.906-2.157
		c0.321-0.222,0.755-0.373,1.143-0.383c1.541-0.042,3.083-0.016,4.626-0.014C16.195,14.346,18.463,14.346,20.732,14.346z"/>
	<g>
		<circle cx="7.458" cy="8.585" r="1.438"/>
		<circle cx="12.333" cy="8.585" r="1.438"/>
		<circle cx="17.208" cy="8.585" r="1.438"/>
	</g>
</g>
</svg>
